<svg id="Layer_1" data-name="Layer 1" xmlns="http://www.w3.org/2000/svg" viewBox="0 0 934.59 511.27"><defs><style>.cls-1{font-size:186.3px;fill:#333;font-family:AntipastoPro, Antipasto Pro;}.cls-2{font-size:150px;fill:#666;}.cls-3{fill:gray;}.cls-4{fill:#39b54a;}</style></defs><title>logo</title><text class="cls-1" transform="translate(0 152.77)">Programmer<tspan class="cls-2"><tspan x="398.48" y="150">On</tspan></tspan><tspan x="302.28" y="300">Duty</tspan></text><circle class="cls-3" cx="287.36" cy="245.32" r="10.68"/><path class="cls-3" d="M310.41,225.9q-17.31,4.42-34.85,7.63a11.47,11.47,0,0,0-.37-2.25c-2.35-8.45-15.16-11.17-18.26-12.4l6-6.51c4.46-4.85-2.76-12.11-7.24-7.24l-11,11.94c-2.08,2.27-2.05,6.53,1,8,1.72.84,3.47,1.6,5.24,2.34-11.71,3.49-17.22,4-17.48,4-23,2-43.31,3.78-66.35,5.77-8.16.7-7.47,13.4.76,12.69q20.5-1.75,41-3.54l-37.62,9.43c-8,2-4.6,14.35,3.41,12.34,16.08-4,78-18,89.79-22.38q24.54-3.81,48.62-10C319.52,234.12,316.81,224.26,310.41,225.9Z" transform="translate(5.66 28.43)"/><path class="cls-3" d="M241.34,226.21a8.33,8.33,0,0,1-1.64-3.62,9.94,9.94,0,0,1-.11-1.72l-.13-.18-75.82-11.94,9.2,24.2,60.33-5.22A61.51,61.51,0,0,0,241.34,226.21Z" transform="translate(5.66 28.43)"/><rect class="cls-4" x="661.8" y="222.59" width="31.41" height="31.41" rx="12" ry="12"/><rect class="cls-4" x="700.92" y="222.59" width="31.41" height="31.41" rx="12" ry="12"/><rect class="cls-4" x="661.8" y="260.97" width="31.41" height="31.41" rx="12" ry="12"/><rect class="cls-4" x="701.8" y="260.97" width="31.41" height="31.41" rx="12" ry="12"/></svg>